<?xml version="1.0" encoding="iso-8859-1"?>
<!-- Generator: Adobe Illustrator 19.0.0, SVG Export Plug-In . SVG Version: 6.00 Build 0)  -->
<svg version="1.1" id="Layer_1" xmlns="http://www.w3.org/2000/svg" xmlns:xlink="http://www.w3.org/1999/xlink" x="0px" y="0px"
	 viewBox="0 0 512 512" style="enable-background:new 0 0 512 512;" xml:space="preserve">
<path style="fill:#5B5B5F;" d="M178.38,132.483c-2.492-2.616-24.334-27.341-24.334-88.951h31.353
	c0,25.619,4.377,42.698,8.047,52.516c3.904,10.439,7.834,15.022,7.874,15.067c-0.149-0.169-0.232-0.25-0.232-0.25L178.38,132.483z"
	/>
<path style="fill:#434347;" d="M333.62,132.483l-22.709-21.618c0,0-0.083,0.08-0.232,0.25c0.04-0.045,3.97-4.629,7.874-15.067
	c3.671-9.818,8.047-26.897,8.047-52.516h31.353C357.956,105.141,336.112,129.867,333.62,132.483z"/>
<path style="fill:#EAEAEA;" d="M139.667,135.764c-0.617-0.193-62.301-19.495-112.894-35.534l-13.367-4.238l-5.696,12.814
	c-7.356,16.549-13.186,40.85,0.809,62.639c24.536,38.194,92.305,40.002,99.952,40.083L139.667,135.764z"/>
<path style="fill:#D37B93;" d="M108.801,180.176c-14.995-0.158-60.758-5.214-73.902-25.677c-4.034-6.281-4.115-13.51-2.935-19.738
	c47.155,14.911,97.782,30.751,98.341,30.926L108.801,180.176z"/>
<path style="fill:#AEAEAF;" d="M372.333,135.764c0.617-0.193,62.301-19.495,112.894-35.534l13.367-4.238l5.696,12.814
	c7.355,16.549,13.186,40.85-0.809,62.639c-24.536,38.194-92.305,40.002-99.952,40.083L372.333,135.764z"/>
<path style="fill:#9D5B6E;" d="M403.2,180.176c14.995-0.158,60.758-5.214,73.902-25.677c4.034-6.281,4.115-13.51,2.935-19.738
	c-47.155,14.911-97.782,30.751-98.341,30.926L403.2,180.176z"/>
<path style="fill:#D37B93;" d="M134.496,379.95c7.883,18.499,17.519,36.047,30.446,50.528
	c22.818,25.564,52.603,37.991,91.058,37.991s68.24-12.427,91.058-37.991c12.926-14.481,22.563-32.029,30.446-50.528
	c-32.182-22.13-75.41-34.793-121.504-34.793C209.909,345.158,166.68,357.82,134.496,379.95z"/>
<path style="fill:#EAEAEA;" d="M401.989,313.013c11.012-29.314,19.71-52.467,19.71-90.207c0-25.932-5.93-48.286-17.626-66.438
	c-10.303-15.992-25.109-28.785-44.007-38.021c-34.561-16.894-75.944-18.848-104.065-18.848s-69.504,1.953-104.065,18.848
	c-18.898,9.237-33.704,22.029-44.007,38.021c-11.696,18.152-17.626,40.506-17.626,66.438c0,37.74,8.697,60.894,19.71,90.207
	c3.669,9.766,7.463,19.864,11.392,31.671c3.922,11.787,8.168,23.712,13.092,35.267c32.183-22.13,75.411-34.793,121.504-34.793
	s89.322,12.662,121.504,34.793c4.925-11.556,9.17-23.481,13.092-35.267C394.526,332.876,398.32,322.777,401.989,313.013z"/>
<g>
	<path style="fill:#333333;" d="M183.253,227.26c0-11.515,9.23-20.84,20.573-20.84c11.357,0,20.587,9.326,20.587,20.84
		c0,11.513-9.229,20.847-20.587,20.847C192.484,248.106,183.253,238.773,183.253,227.26z"/>
	<path style="fill:#333333;" d="M206.859,401.794c0-9.06,7.263-16.397,16.187-16.397c8.936,0,16.197,7.337,16.197,16.397
		c0,9.058-7.261,16.402-16.197,16.402C214.122,418.196,206.859,410.853,206.859,401.794z"/>
</g>
<path style="fill:#9D5B6E;" d="M256.001,345.158v123.311c38.455,0,68.24-12.427,91.058-37.991
	c12.926-14.481,22.563-32.029,30.446-50.528C345.322,357.82,302.093,345.158,256.001,345.158L256.001,345.158z"/>
<path style="fill:#AEAEAF;" d="M404.072,156.367c-10.303-15.992-25.109-28.785-44.007-38.021
	c-34.561-16.894-75.944-18.848-104.065-18.848v245.661l0,0c46.093,0,89.322,12.662,121.504,34.793
	c4.925-11.556,9.17-23.481,13.092-35.267c3.93-11.807,7.723-21.906,11.392-31.671c11.012-29.314,19.71-52.467,19.71-90.207
	C421.699,196.872,415.769,174.518,404.072,156.367z"/>
<g>
	<path style="fill:#333333;" d="M328.748,227.26c0-11.6-9.29-21.003-20.729-21.003c-11.452,0-20.742,9.403-20.742,21.003
		c0,11.6,9.29,21.003,20.742,21.003C319.458,248.261,328.748,238.86,328.748,227.26z"/>
	<path style="fill:#333333;" d="M305.141,401.794c0-9.127-7.31-16.524-16.309-16.524c-9.011,0-16.32,7.397-16.32,16.524
		c0,9.126,7.31,16.524,16.32,16.524C297.832,418.318,305.141,410.921,305.141,401.794z"/>
</g>
<g>
</g>
<g>
</g>
<g>
</g>
<g>
</g>
<g>
</g>
<g>
</g>
<g>
</g>
<g>
</g>
<g>
</g>
<g>
</g>
<g>
</g>
<g>
</g>
<g>
</g>
<g>
</g>
<g>
</g>
</svg>
